<svg xmlns:xlink="http://www.w3.org/1999/xlink" xmlns="http://www.w3.org/2000/svg" style="width:100%;height:100%" width="30"  height="30" ><defs><svg viewBox="0 0 30 30" id="svg8756703964"><path d="M 9.886 2.318 L 9.682 2.248 L 9.682 2.248 C 9.477 2.178 9.273 2.108 9.136 2.178 L 7.5 1.686 L 9.068 0.984 C 9.477 0.773 9.886 0.632 10.296 0.492 L 10.5 0.422 L 10.705 0.492 L 11.318 0.703 C 13.296 1.265 15.341 1.124 17.386 0.351 C 17.489 0.316 17.591 0.263 17.693 0.211 C 17.796 0.158 17.898 0.105 18 0.07 L 18.205 0 L 18.409 0 C 18.886 0.07 19.296 0.211 19.705 0.351 L 21.136 0.843 L 19.023 1.897 C 17.318 2.6 15.614 3.021 13.841 3.021 C 12.136 3.021 10.773 2.67 9.886 2.318 Z M 5.139 6.617 L 5.139 6.617 L 5.139 6.617 C 5.223 6.589 5.306 6.562 5.386 6.534 C 7.227 6.042 9.205 6.112 11.182 6.885 C 12.477 7.377 13.773 7.588 15.205 7.588 C 18.068 7.588 20.932 6.534 23.591 4.496 L 24.614 3.653 L 24.955 3.372 L 24.341 2.881 C 24.136 2.67 23.864 2.459 23.591 2.319 L 23.182 2.037 L 22.841 2.319 C 22.773 2.354 22.722 2.406 22.67 2.459 C 22.619 2.512 22.568 2.564 22.5 2.6 C 18.886 5.41 15.273 6.183 11.864 4.848 C 9.409 3.934 6.955 3.724 4.5 4.496 C 4.295 4.567 4.091 4.637 3.818 4.707 L 3.682 4.778 L 3.477 4.988 C 3.477 5.032 3.451 5.048 3.415 5.071 C 3.393 5.085 3.367 5.102 3.341 5.129 C 3.205 5.34 3.051 5.533 2.898 5.726 C 2.744 5.919 2.591 6.112 2.455 6.323 L 1.159 8.361 L 3.273 7.237 C 3.543 7.237 3.77 7.148 3.955 7.077 C 4.003 7.058 4.048 7.04 4.091 7.026 C 4.42 6.856 4.793 6.732 5.139 6.617 Z M 6.886 11.101 C 4.977 11.663 3.205 12.717 1.636 14.403 C 1.497 14.499 1.389 14.628 1.291 14.744 C 1.245 14.799 1.202 14.85 1.159 14.895 L 0 16.159 L 0.068 14.403 C 0.103 14.184 0.121 13.947 0.138 13.701 C 0.155 13.472 0.172 13.235 0.205 12.998 L 0.205 12.787 L 0.341 12.646 L 0.682 12.295 L 2.114 11.101 C 3.477 10.187 4.841 9.485 6.273 9.063 C 8.523 8.431 10.977 8.571 13.364 9.485 C 18.409 11.452 22.841 8.571 25.705 5.761 L 25.977 5.48 L 26.455 4.988 L 26.864 5.55 C 26.941 5.656 27.008 5.762 27.073 5.864 L 27.073 5.864 L 27.073 5.864 C 27.181 6.033 27.282 6.192 27.409 6.323 L 27.682 6.745 L 27.341 7.026 L 26.455 7.939 C 24.136 9.977 18.818 13.77 12.682 11.452 C 10.704 10.679 8.727 10.609 6.886 11.101 Z M 8.25 15.667 C 10.091 15.176 12.068 15.246 14.046 16.019 C 16.227 16.862 21.818 18.056 28.091 12.225 L 29.114 11.171 L 29.182 11.101 L 29.455 10.82 L 29.318 10.468 C 29.25 10.187 29.114 9.836 28.977 9.485 L 28.977 9.485 L 28.636 8.501 L 27.955 9.204 C 27.911 9.295 27.838 9.356 27.756 9.426 C 27.71 9.464 27.662 9.505 27.614 9.555 C 24.614 12.717 19.977 15.948 14.659 13.981 C 12.273 13.068 9.818 12.927 7.568 13.56 C 5.386 14.192 3.477 15.386 1.705 17.073 L 1.705 17.002 L 0.682 18.126 C 0.682 18.17 0.656 18.186 0.62 18.209 C 0.598 18.224 0.572 18.24 0.545 18.267 L 0.341 18.478 L 0.409 18.759 C 0.443 18.934 0.494 19.11 0.545 19.286 C 0.597 19.461 0.648 19.637 0.682 19.813 L 1.091 20.937 L 1.773 20.023 C 1.807 19.953 1.858 19.9 1.909 19.848 C 1.96 19.795 2.011 19.742 2.045 19.672 L 2.164 19.562 C 3.586 18.235 5.531 16.419 8.25 15.667 Z M 17.591 23.255 C 15.205 22.342 12.75 22.201 10.5 22.834 C 8.932 23.255 7.432 24.098 6.068 25.152 L 5.114 25.995 L 4.841 26.276 L 5.455 26.838 C 5.497 26.838 5.513 26.865 5.535 26.902 C 5.549 26.925 5.565 26.952 5.591 26.979 C 5.691 27.082 5.791 27.147 5.917 27.23 L 5.917 27.23 L 5.917 27.23 L 5.918 27.23 C 5.964 27.26 6.014 27.293 6.068 27.33 L 6.477 27.611 L 6.886 27.26 C 6.955 27.19 7.091 27.049 7.227 26.979 C 8.455 25.925 9.818 25.223 11.25 24.871 C 13.091 24.379 15.068 24.45 17.045 25.223 C 18.682 25.855 22.023 26.628 26.045 24.871 L 26.182 24.801 L 26.386 24.59 C 26.386 24.547 26.412 24.53 26.448 24.507 C 26.471 24.493 26.497 24.477 26.523 24.45 L 26.523 24.45 C 26.864 24.028 27.205 23.607 27.477 23.115 L 28.841 20.937 L 26.659 22.201 C 23.455 24.028 20.523 24.379 17.591 23.255 Z M 19.296 27.927 L 19.296 27.927 L 19.295 27.927 C 19.21 27.892 19.125 27.857 19.023 27.822 C 16.636 26.909 14.182 26.768 11.932 27.4 L 11.932 27.4 C 11.454 27.541 10.977 27.681 10.5 27.892 L 8.864 28.665 L 8.455 28.876 L 9.818 29.368 L 11.046 29.789 L 11.25 29.859 L 11.455 29.789 C 11.523 29.766 11.591 29.735 11.659 29.703 C 11.796 29.641 11.932 29.578 12.068 29.578 C 12.205 29.578 12.341 29.508 12.477 29.438 C 14.114 29.016 15.886 29.016 17.796 29.649 C 17.898 29.684 17.983 29.719 18.068 29.754 L 18.068 29.754 L 18.068 29.754 C 18.153 29.789 18.239 29.824 18.341 29.859 L 18.682 30 L 18.886 29.93 C 18.959 29.908 19.033 29.887 19.108 29.865 L 19.108 29.865 C 19.527 29.745 19.971 29.617 20.318 29.438 L 22.227 28.735 L 20.25 28.243 C 20.148 28.208 20.028 28.173 19.909 28.138 C 19.79 28.103 19.671 28.068 19.568 28.033 C 19.466 27.998 19.381 27.962 19.296 27.927 Z M 28.977 14.543 L 30 13.49 L 29.932 15.105 C 29.932 15.316 29.915 15.545 29.898 15.773 L 29.898 15.773 C 29.881 16.001 29.864 16.23 29.864 16.44 L 29.864 16.651 L 29.659 16.862 C 29.591 16.932 29.523 16.985 29.454 17.038 C 29.386 17.09 29.318 17.143 29.25 17.213 C 26.932 19.251 23.796 21.077 20.659 21.429 C 18.886 21.639 17.114 21.429 15.409 20.796 C 13.432 20.024 11.454 19.953 9.614 20.445 C 7.568 21.007 5.795 22.131 4.159 23.958 L 3.886 24.239 L 3.409 24.871 L 3 24.239 C 2.864 23.958 2.727 23.747 2.523 23.466 L 2.25 23.045 L 2.523 22.693 L 3.409 21.71 C 5.114 20.024 7.023 18.899 9.136 18.267 C 11.386 17.635 13.841 17.775 16.227 18.689 C 21.273 20.656 25.773 17.705 28.568 14.965 Z" fill="var(--token-5a6a7d77-3d7f-4cac-a6d6-7ea13b9dcea9, rgb(0, 0, 0))"></path></svg></defs><use href="#svg8756703964"></use></svg>