<svg xmlns:xlink="http://www.w3.org/1999/xlink" xmlns="http://www.w3.org/2000/svg" style="width:100%;height:100%" width="34"  height="34" ><defs><svg viewBox="0 0 34 34" id="svg10714208595"><g id="ss10714208595_1"><path d="M 0 34 L 0 0 L 34 0 L 34 34 Z" fill="#000000" fill-opacity="0"></path><path d="M 17.004 8.818 L 25.11 12.91 L 17.004 17.002 L 8.898 12.91 Z" fill="#000000" stroke-width="1.21429px" stroke="#FFFFFF" stroke-miterlimit="10" stroke-dasharray="" fill-opacity="0"></path><path d="M 17.004 17 L 8.898 12.909 L 8.898 21.092 L 17.004 25.184 Z" fill="#000000" stroke-width="1.21429px" stroke="#FFFFFF" stroke-miterlimit="10" stroke-dasharray="" fill-opacity="0"></path><path d="M 8.894 12.909 L 0.809 8.817 L 0.809 17.001 L 8.894 21.093 Z" fill="#000000" stroke-width="1.21429px" stroke="#FFFFFF" stroke-miterlimit="10" stroke-dasharray="" fill-opacity="0"></path><path d="M 17.004 25.186 L 8.898 21.094 L 8.898 29.277 L 17.004 33.369 Z" fill="#000000" stroke-width="1.21429px" stroke="#FFFFFF" stroke-miterlimit="10" stroke-dasharray="" fill-opacity="0"></path><path d="M 8.894 21.092 L 0.809 17 L 0.809 25.183 L 8.894 29.275 Z" fill="#000000" stroke-width="1.21429px" stroke="#FFFFFF" stroke-miterlimit="10" stroke-dasharray="" fill-opacity="0"></path><path d="M 8.894 4.726 L 16.999 8.817 L 8.894 12.909 L 0.809 8.817 Z" fill="#000000" stroke-width="1.21429px" stroke="#FFFFFF" stroke-miterlimit="10" stroke-dasharray="" fill-opacity="0"></path><path d="M 25.11 4.726 L 33.195 8.817 L 25.11 12.909 L 17.004 8.817 Z" fill="#000000" stroke-width="1.21429px" stroke="#FFFFFF" stroke-miterlimit="10" stroke-dasharray="" fill-opacity="0"></path><path d="M 17.004 0.635 L 25.11 4.727 L 17.004 8.818 L 8.898 4.727 Z" fill="#000000" stroke-width="1.21429px" stroke="#FFFFFF" stroke-miterlimit="10" stroke-dasharray="" fill-opacity="0"></path><path d="M 17.004 17 L 25.11 12.909 L 25.11 21.092 L 17.004 25.184 Z" fill="#000000" stroke-width="1.21429px" stroke="#FFFFFF" stroke-miterlimit="10" stroke-dasharray="" fill-opacity="0"></path><path d="M 25.105 12.91 L 33.191 8.818 L 33.191 17.002 L 25.105 21.094 Z" fill="#000000" stroke-width="1.21429px" stroke="#FFFFFF" stroke-miterlimit="10" stroke-dasharray="" fill-opacity="0"></path><path d="M 17.004 25.186 L 25.11 21.094 L 25.11 29.277 L 17.004 33.369 Z" fill="#000000" stroke-width="1.21429px" stroke="#FFFFFF" stroke-miterlimit="10" stroke-dasharray="" fill-opacity="0"></path><path d="M 25.105 21.092 L 33.191 17 L 33.191 25.183 L 25.105 29.275 Z" fill="#000000" stroke-width="1.21429px" stroke="#FFFFFF" stroke-miterlimit="10" stroke-dasharray="" fill-opacity="0"></path></g></svg></defs><use href="#svg10714208595"></use></svg>