<svg xmlns:xlink="http://www.w3.org/1999/xlink" xmlns="http://www.w3.org/2000/svg" style="width:100%;height:100%" width="34"  height="34" ><defs><svg viewBox="0 0 34 34" id="svg8692169300"><g id="ss8692169300_1"><path d="M 0 34 L 0 0 L 34 0 L 34 34 Z" fill="#000000" fill-opacity="0"></path><path d="M 16.998 33.191 C 21.468 33.191 25.093 29.566 25.093 25.095 C 25.093 20.624 21.468 17 16.998 17 C 12.527 17 8.902 20.624 8.902 25.095 C 8.902 29.566 12.527 33.191 16.998 33.191 Z" fill="#000000" stroke-width="1.21429px" stroke="#FFFFFF" stroke-miterlimit="10" stroke-dasharray="" fill-opacity="0"></path><path d="M 16.998 16.998 C 21.468 16.998 25.093 13.374 25.093 8.903 C 25.093 4.432 21.468 0.808 16.998 0.808 C 12.527 0.808 8.902 4.432 8.902 8.903 C 8.902 13.374 12.527 16.998 16.998 16.998 Z" fill="#000000" stroke-width="1.21429px" stroke="#FFFFFF" stroke-miterlimit="10" stroke-dasharray="" fill-opacity="0"></path><path d="M 25.099 25.093 C 29.57 25.093 33.194 21.468 33.194 16.998 C 33.194 12.527 29.57 8.902 25.099 8.902 C 20.628 8.902 17.004 12.527 17.004 16.998 C 17.004 21.468 20.628 25.093 25.099 25.093 Z" fill="#000000" stroke-width="1.21429px" stroke="#FFFFFF" stroke-miterlimit="10" stroke-dasharray="" fill-opacity="0"></path><path d="M 8.904 25.093 C 13.375 25.093 16.999 21.468 16.999 16.998 C 16.999 12.527 13.375 8.902 8.904 8.902 C 4.433 8.902 0.809 12.527 0.809 16.998 C 0.809 21.468 4.433 25.093 8.904 25.093 Z" fill="#000000" stroke-width="1.21429px" stroke="#FFFFFF" stroke-miterlimit="10" stroke-dasharray="" fill-opacity="0"></path></g></svg></defs><use href="#svg8692169300"></use></svg>