<svg xmlns:xlink="http://www.w3.org/1999/xlink" xmlns="http://www.w3.org/2000/svg" style="width:100%;height:100%" width="34"  height="34" ><defs><svg viewBox="0 0 34 34" id="svg12433851837"><g id="ss12433851837_1"><path d="M 0 34 L 0 0 L 34 0 L 34 34 Z" fill="#000000" fill-opacity="0"></path><path d="M 22.403 11.604 C 22.403 13.582 20.784 15.201 18.805 15.201" fill="#000000" stroke-width="1.21429px" stroke="#FFFFFF" stroke-miterlimit="10" stroke-dasharray="" fill-opacity="0"></path><path d="M 15.207 18.798 C 15.207 16.819 16.826 15.2 18.805 15.2" fill="#000000" stroke-width="1.21429px" stroke="#FFFFFF" stroke-miterlimit="10" stroke-dasharray="" fill-opacity="0"></path><path d="M 29.594 4.407 C 29.594 6.386 27.975 8.005 25.996 8.005" fill="#000000" stroke-width="1.21429px" stroke="#FFFFFF" stroke-miterlimit="10" stroke-dasharray="" fill-opacity="0"></path><path d="M 8.008 25.995 C 8.008 27.974 6.389 29.593 4.41 29.593" fill="#000000" stroke-width="1.21429px" stroke="#FFFFFF" stroke-miterlimit="10" stroke-dasharray="" fill-opacity="0"></path><path d="M 8.012 25.995 C 8.012 24.017 9.631 22.398 11.61 22.398" fill="#000000" stroke-width="1.21429px" stroke="#FFFFFF" stroke-miterlimit="10" stroke-dasharray="" fill-opacity="0"></path><path d="M 0.809 33.191 C 0.809 31.212 2.428 29.593 4.406 29.593" fill="#000000" stroke-width="1.21429px" stroke="#FFFFFF" stroke-miterlimit="10" stroke-dasharray="" fill-opacity="0"></path><path d="M 29.59 4.407 C 29.59 2.429 31.209 0.81 33.188 0.81" fill="#000000" stroke-width="1.21429px" stroke="#FFFFFF" stroke-miterlimit="10" stroke-dasharray="" fill-opacity="0"></path><path d="M 22.406 11.604 C 22.406 9.625 24.025 8.006 26.004 8.006" fill="#000000" stroke-width="1.21429px" stroke="#FFFFFF" stroke-miterlimit="10" stroke-dasharray="" fill-opacity="0"></path><path d="M 15.203 18.8 C 15.203 20.779 13.584 22.398 11.605 22.398" fill="#000000" stroke-width="1.21429px" stroke="#FFFFFF" stroke-miterlimit="10" stroke-dasharray="" fill-opacity="0"></path><path d="M 26.004 15.2 C 26.004 17.179 24.385 18.798 22.406 18.798" fill="#000000" stroke-width="1.21429px" stroke="#FFFFFF" stroke-miterlimit="10" stroke-dasharray="" fill-opacity="0"></path><path d="M 18.805 22.398 C 18.805 20.419 20.424 18.8 22.403 18.8" fill="#000000" stroke-width="1.21429px" stroke="#FFFFFF" stroke-miterlimit="10" stroke-dasharray="" fill-opacity="0"></path><path d="M 33.188 8.006 C 33.188 9.985 31.569 11.604 29.59 11.604" fill="#000000" stroke-width="1.21429px" stroke="#FFFFFF" stroke-miterlimit="10" stroke-dasharray="" fill-opacity="0"></path><path d="M 11.61 29.593 C 11.61 31.572 9.991 33.191 8.012 33.191" fill="#000000" stroke-width="1.21429px" stroke="#FFFFFF" stroke-miterlimit="10" stroke-dasharray="" fill-opacity="0"></path><path d="M 11.605 29.593 C 11.605 27.614 13.225 25.995 15.203 25.995" fill="#000000" stroke-width="1.21429px" stroke="#FFFFFF" stroke-miterlimit="10" stroke-dasharray="" fill-opacity="0"></path><path d="M 25.996 15.201 C 25.996 13.223 27.615 11.604 29.594 11.604" fill="#000000" stroke-width="1.21429px" stroke="#FFFFFF" stroke-miterlimit="10" stroke-dasharray="" fill-opacity="0"></path><path d="M 18.805 22.398 C 18.805 24.376 17.186 25.995 15.207 25.995" fill="#000000" stroke-width="1.21429px" stroke="#FFFFFF" stroke-miterlimit="10" stroke-dasharray="" fill-opacity="0"></path><path d="M 18.805 8.006 C 18.805 9.985 17.186 11.604 15.207 11.604" fill="#000000" stroke-width="1.21429px" stroke="#FFFFFF" stroke-miterlimit="10" stroke-dasharray="" fill-opacity="0"></path><path d="M 11.605 15.201 C 11.605 13.223 13.225 11.604 15.203 11.604" fill="#000000" stroke-width="1.21429px" stroke="#FFFFFF" stroke-miterlimit="10" stroke-dasharray="" fill-opacity="0"></path><path d="M 26.004 0.81 C 26.004 2.788 24.385 4.407 22.406 4.407" fill="#000000" stroke-width="1.21429px" stroke="#FFFFFF" stroke-miterlimit="10" stroke-dasharray="" fill-opacity="0"></path><path d="M 4.406 22.398 C 4.406 24.376 2.787 25.995 0.809 25.995" fill="#000000" stroke-width="1.21429px" stroke="#FFFFFF" stroke-miterlimit="10" stroke-dasharray="" fill-opacity="0"></path><path d="M 4.41 22.398 C 4.41 20.419 6.029 18.8 8.008 18.8" fill="#000000" stroke-width="1.21429px" stroke="#FFFFFF" stroke-miterlimit="10" stroke-dasharray="" fill-opacity="0"></path><path d="M 18.805 8.005 C 18.805 6.026 20.424 4.407 22.403 4.407" fill="#000000" stroke-width="1.21429px" stroke="#FFFFFF" stroke-miterlimit="10" stroke-dasharray="" fill-opacity="0"></path><path d="M 11.61 15.2 C 11.61 17.179 9.991 18.798 8.012 18.798" fill="#000000" stroke-width="1.21429px" stroke="#FFFFFF" stroke-miterlimit="10" stroke-dasharray="" fill-opacity="0"></path><path d="M 29.594 18.8 C 29.594 20.779 27.975 22.398 25.996 22.398" fill="#000000" stroke-width="1.21429px" stroke="#FFFFFF" stroke-miterlimit="10" stroke-dasharray="" fill-opacity="0"></path><path d="M 22.406 25.995 C 22.406 24.017 24.025 22.398 26.004 22.398" fill="#000000" stroke-width="1.21429px" stroke="#FFFFFF" stroke-miterlimit="10" stroke-dasharray="" fill-opacity="0"></path><path d="M 15.207 33.191 C 15.207 31.212 16.826 29.593 18.805 29.593" fill="#000000" stroke-width="1.21429px" stroke="#FFFFFF" stroke-miterlimit="10" stroke-dasharray="" fill-opacity="0"></path><path d="M 29.59 18.798 C 29.59 16.819 31.209 15.2 33.188 15.2" fill="#000000" stroke-width="1.21429px" stroke="#FFFFFF" stroke-miterlimit="10" stroke-dasharray="" fill-opacity="0"></path><path d="M 22.403 25.995 C 22.403 27.974 20.784 29.593 18.805 29.593" fill="#000000" stroke-width="1.21429px" stroke="#FFFFFF" stroke-miterlimit="10" stroke-dasharray="" fill-opacity="0"></path><path d="M 15.203 4.407 C 15.203 6.386 13.584 8.005 11.605 8.005" fill="#000000" stroke-width="1.21429px" stroke="#FFFFFF" stroke-miterlimit="10" stroke-dasharray="" fill-opacity="0"></path><path d="M 8.012 11.604 C 8.012 9.625 9.631 8.006 11.61 8.006" fill="#000000" stroke-width="1.21429px" stroke="#FFFFFF" stroke-miterlimit="10" stroke-dasharray="" fill-opacity="0"></path><path d="M 0.809 18.798 C 0.809 16.819 2.428 15.2 4.406 15.2" fill="#000000" stroke-width="1.21429px" stroke="#FFFFFF" stroke-miterlimit="10" stroke-dasharray="" fill-opacity="0"></path><path d="M 15.207 4.407 C 15.207 2.429 16.826 0.81 18.805 0.81" fill="#000000" stroke-width="1.21429px" stroke="#FFFFFF" stroke-miterlimit="10" stroke-dasharray="" fill-opacity="0"></path><path d="M 8.008 11.604 C 8.008 13.582 6.389 15.201 4.41 15.201" fill="#000000" stroke-width="1.21429px" stroke="#FFFFFF" stroke-miterlimit="10" stroke-dasharray="" fill-opacity="0"></path><path d="M 33.188 22.398 C 33.188 24.376 31.569 25.995 29.59 25.995" fill="#000000" stroke-width="1.21429px" stroke="#FFFFFF" stroke-miterlimit="10" stroke-dasharray="" fill-opacity="0"></path><path d="M 25.996 29.593 C 25.996 27.614 27.615 25.995 29.594 25.995" fill="#000000" stroke-width="1.21429px" stroke="#FFFFFF" stroke-miterlimit="10" stroke-dasharray="" fill-opacity="0"></path><path d="M 26.004 29.593 C 26.004 31.572 24.385 33.191 22.406 33.191" fill="#000000" stroke-width="1.21429px" stroke="#FFFFFF" stroke-miterlimit="10" stroke-dasharray="" fill-opacity="0"></path><path d="M 11.61 0.81 C 11.61 2.788 9.991 4.407 8.012 4.407" fill="#000000" stroke-width="1.21429px" stroke="#FFFFFF" stroke-miterlimit="10" stroke-dasharray="" fill-opacity="0"></path><path d="M 4.41 8.005 C 4.41 6.026 6.029 4.407 8.008 4.407" fill="#000000" stroke-width="1.21429px" stroke="#FFFFFF" stroke-miterlimit="10" stroke-dasharray="" fill-opacity="0"></path><path d="M 4.406 8.006 C 4.406 9.985 2.787 11.604 0.809 11.604" fill="#000000" stroke-width="1.21429px" stroke="#FFFFFF" stroke-miterlimit="10" stroke-dasharray="" fill-opacity="0"></path><path d="M 29.59 33.191 C 29.59 31.212 31.209 29.593 33.188 29.593" fill="#000000" stroke-width="1.21429px" stroke="#FFFFFF" stroke-miterlimit="10" stroke-dasharray="" fill-opacity="0"></path><path d="M 0.809 4.407 C 0.809 2.429 2.428 0.81 4.406 0.81" fill="#000000" stroke-width="1.21429px" stroke="#FFFFFF" stroke-miterlimit="10" stroke-dasharray="" fill-opacity="0"></path></g></svg></defs><use href="#svg12433851837"></use></svg>