<svg xmlns:xlink="http://www.w3.org/1999/xlink" xmlns="http://www.w3.org/2000/svg" style="width:100%;height:100%" width="34"  height="34" ><defs><svg viewBox="0 0 34 34" id="svg9584194884"><g id="ss9584194884_1"><path d="M 0 34 L 0 0 L 34 0 L 34 34 Z" fill="#000000" fill-opacity="0"></path><path d="M 8.32 21.323 C 10.242 21.323 12.165 20.909 13.639 20.065 C 15.094 19.22 15.831 18.106 15.831 16.992 C 15.831 15.878 15.094 14.764 13.639 13.919 C 12.183 13.074 10.26 12.661 8.32 12.661 C 6.379 12.661 4.474 13.074 3.001 13.919 C 1.545 14.764 0.809 15.878 0.809 16.992 C 0.809 18.106 1.545 19.22 3.001 20.065 C 4.474 20.909 6.397 21.323 8.32 21.323 Z" fill="#000000" stroke-width="1.21429px" stroke="#FFFFFF" stroke-miterlimit="10" stroke-dasharray="" fill-opacity="0"></path><path d="M 12.672 8.33 C 12.672 10.252 13.085 12.175 13.93 13.649 C 14.774 15.104 15.888 15.841 17.002 15.841 C 18.116 15.841 19.231 15.104 20.075 13.649 C 20.92 12.193 21.333 10.27 21.333 8.33 C 21.333 6.407 20.92 4.484 20.075 3.011 C 19.231 1.555 18.116 0.818 17.002 0.818 C 15.888 0.818 14.774 1.555 13.93 3.011 C 13.085 4.466 12.672 6.407 12.672 8.33 Z" fill="#000000" stroke-width="1.21429px" stroke="#FFFFFF" stroke-miterlimit="10" stroke-dasharray="" fill-opacity="0"></path><path d="M 12.672 25.671 C 12.672 23.749 13.085 21.826 13.93 20.352 C 14.774 18.897 15.888 18.16 17.002 18.16 C 18.116 18.16 19.231 18.897 20.075 20.352 C 20.92 21.808 21.333 23.731 21.333 25.671 C 21.333 27.594 20.92 29.517 20.075 30.99 C 19.231 32.446 18.116 33.183 17.002 33.183 C 15.888 33.183 14.774 32.446 13.93 30.99 C 13.085 29.517 12.672 27.594 12.672 25.671 Z" fill="#000000" stroke-width="1.21429px" stroke="#FFFFFF" stroke-miterlimit="10" stroke-dasharray="" fill-opacity="0"></path><path d="M 25.675 21.323 C 23.753 21.323 21.83 20.909 20.356 20.065 C 18.901 19.22 18.164 18.106 18.164 16.992 C 18.164 15.878 18.901 14.764 20.356 13.919 C 21.812 13.074 23.735 12.661 25.675 12.661 C 27.598 12.661 29.521 13.074 30.994 13.919 C 32.45 14.764 33.186 15.878 33.186 16.992 C 33.186 18.106 32.45 19.22 30.994 20.065 C 29.521 20.909 27.598 21.323 25.675 21.323 Z" fill="#000000" stroke-width="1.21429px" stroke="#FFFFFF" stroke-miterlimit="10" stroke-dasharray="" fill-opacity="0"></path></g></svg></defs><use href="#svg9584194884"></use></svg>